# AST/ASF file generated using VICON BodyLanguage
# -----------------------------------------------
:version 1.10
:name VICON
:units
  mass 1.0
  length 0.45
  angle deg
:documentation
   .ast/.asf automatically generated from VICON data using
   VICON BodyBuilder and BodyLanguage model FoxedUp or BRILLIANT.MOD
:root
   order TX TY TZ RX RY RZ
   axis XYZ
   position 0 0 0  
   orientation 0 0 0 
:bonedata
  begin
     id 1 
     name lhipjoint
     direction 0.645893 -0.654526 0.392961 
     length 2.38111 
     axis 0 0 0  XYZ
  end
  begin
     id 2 
     name lfemur
     direction 0.34202 -0.939693 0  
     length 6.6822  
     axis 0 0 20  XYZ
    dof rx ry rz
    limits (-160.0 20.0)
           (-70.0 70.0)
           (-60.0 70.0)
  end
  begin
     id 3 
     name ltibia
     direction 0.34202 -0.939693 0   
     length 6.93904   
     axis 0 0 20   XYZ
    dof rx
    limits (-10.0 170.0)
  end
  begin
     id 4 
     name lfoot
     direction 0.0694967 -0.190941 0.979138   
     length 2.13616   
     axis -90 7.62852e-016 20   XYZ
    dof rx rz
    limits (-45.0 90.0)
           (-70.0 20.0)
  end
  begin
     id 5 
     name ltoes
     direction 1.535e-011 -4.2202e-011 1   
     length 1.07536   
     axis -90 7.62852e-016 20   XYZ
    dof rx
    limits (-90.0 20.0)
  end
  begin
     id 6 
     name rhipjoint
     direction -0.700219 -0.612087 0.367481   
     length 2.54621  
     axis 0 0 0  XYZ 
  end
  begin
     id 7 
     name rfemur
     direction -0.34202 -0.939693 0   
     length 6.55353   
     axis 0 0 -20   XYZ
    dof rx ry rz
    limits (-160.0 20.0)
           (-70.0 70.0)
           (-70.0 60.0)
  end
  begin
     id 8 
     name rtibia
     direction -0.34202 -0.939693 0   
     length 6.8736   
     axis 0 0 -20   XYZ
    dof rx
    limits (-10.0 170.0)
 end
 begin
     id 9 
     name rfoot
     direction -0.0679995 -0.186827 0.980037   
     length 2.1218  
     axis -90 -7.62852e-016 -20   XYZ
    dof rx rz
    limits (-45.0 90.0)
           (-20.0 70.0)
  end
  begin
     id 10 
     name rtoes
     direction -1.53589e-011 -4.21772e-011 1   
     length 1.06864   
     axis -90 -7.62852e-016 -20   XYZ
    dof rx
    limits (-90.0 20.0)
  end
  begin
     id 11 
     name lowerback
     direction -0.0416607 0.996347 -0.0745409   
     length 2.12205   
     axis 0 0 0   XYZ
    dof rx ry rz
    limits (-20.0 45.0)
           (-30.0 30.0)
           (-30.0 30.0)
  end
  begin
     id 12 
     name upperback
     direction -0.000153993 0.999276 -0.0380568   
     length 2.12759   
     axis 0 0 0   XYZ
    dof rx ry rz
    limits (-20.0 45.0)
           (-30.0 30.0)
           (-30.0 30.0)
  end
  begin
     id 13 
     name thorax
     direction 0.0187671 0.999821 -0.00241421   
     length 2.13704   
     axis 0 0 0   XYZ
    dof rx ry rz
    limits (-20.0 45.0)
           (-30.0 30.0)
           (-30.0 30.0)
  end
  begin
     id 14 
     name lowerneck
     direction 0.0268157 0.964865 0.261374   
     length 1.65253   
     axis 0 0 0   XYZ
    dof rx ry rz
    limits (-20.0 45.0)
           (-30.0 30.0)
           (-30.0 30.0)
  end
  begin
     id 15 
     name upperneck
     direction 0.00263774 0.939908 -0.341418   
     length 1.72375   
     axis 0 0 0   XYZ
    dof rx ry rz
    limits (-20.0 45.0)
           (-30.0 30.0)
           (-30.0 30.0)
  end
  begin
     id 16
     name head
     direction -0.00526001 0.989001 -0.147818  
     length 1.74878  
     axis 0 0 0   XYZ
    dof rx ry rz
    limits (-20.0 45.0)
           (-30.0 30.0)
           (-30.0 30.0)
  end
  begin
     id 17 
     name lclavicle
     direction 0.881214 0.461162 -0.103884  
     length 3.25108  
     axis 0 0 0   XYZ
    dof ry rz
    limits (-20.0 10.0)
           (0.0 20.0)
  end
  begin
     id 18 
     name lhumerus
     direction 1 -4.4899e-011 3.38092e-027   
     length 4.87408   
     axis 180 -30 -90   XYZ
    dof rx ry rz
    limits (-60.0 90.0)
           (-90.0 90.0)
           (-90.0 90.0)
  end
  begin
     id 19
     name lradius
     direction 1 -4.48931e-011 9.96288e-027   
     length 2.76729   
     axis 180 -30 -90   XYZ
    dof rx
    limits (-10.0 170.0)
  end
  begin
     id 20
     name lwrist
     direction 1 -4.4896e-011 1.50617e-026   
     length 1.38364   
     axis -9.31234e-015 90 90   XYZ
    dof ry
    limits (-180.0 0.0)
 end
  begin
     id 21 
     name lhand
     direction 1 -4.49038e-011 3.01286e-026   
     length 0.98922   
     axis -1.92217e-014 90 90   XYZ
    dof rx rz
    limits (-90.0 90.0)
           (-45.0 45.0)
  end
  begin
     id 22 
     name lfingers
     direction 1 -4.49051e-011 6.02588e-026   
     length 0.797535   
     axis -3.84436e-014 90 90   XYZ
    dof rx
    limits (0.0 90.0)
  end
  begin
     id 23
     name lthumb
     direction 0.707107 -6.34901e-011 0.707107   
     length 1.14511   
     axis -90 45 2.19363e-014   XYZ
    dof rx rz
    limits (-45.0 45.0)
           (-45.0 45.0)
  end
  begin
     id 24 
     name rclavicle
     direction -0.893894 0.441652 -0.0767889   
     length 3.29361  
     axis 0 0 0   XYZ 
    dof ry rz
    limits (-10.0 20.0)
           (-20.0 0.0)
  end
  begin
     id 25 
     name rhumerus
     direction -1 -4.48945e-011 8.0491e-028  
     length 4.71404   
     axis 180 30 90   XYZ
    dof rx ry rz
    limits (-90.0 60.0)
           (-90.0 90.0)
           (-90.0 90.0)
  end
  begin
     id 26 
     name rradius
     direction -1 -4.48986e-011 9.27795e-027   
     length 2.83468   
     axis 180 30 90   XYZ
    dof rx
    limits (-10.0 170.0)
  end
  begin
     id 27 
     name rwrist
     direction -1 -4.49029e-011 1.5064e-026   
     length 1.41734   
     axis -9.31234e-015 -90 -90   XYZ
    dof ry
    limits (-180.0 0.0)
  end
  begin
     id 28
     name rhand
     direction -1 -4.48857e-011 3.01165e-026   
     length 0.868195   
     axis -1.92217e-014 -90 -90   XYZ
    dof rx rz
    limits (-90.0 90.0)
           (-45.0 45.0)
  end
  begin
     id 29
     name rfingers
     direction -1 -4.49048e-011 6.02585e-026   
     length 0.699961   
     axis -3.84436e-014 -90 -90   XYZ
    dof rx
    limits (0.0 90.0)
  end
  begin
     id 30
     name rthumb
     direction -0.707107 -6.34854e-011 0.707107   
     length 1.00501   
     axis -90 -45 -2.19363e-014   XYZ
    dof rx rz
    limits (-45.0 45.0)
           (-45.0 45.0)
  end
:hierarchy
  begin
    root lhipjoint rhipjoint lowerback
    lhipjoint lfemur
    lfemur ltibia
    ltibia lfoot
    lfoot ltoes
    rhipjoint rfemur
    rfemur rtibia
    rtibia rfoot
    rfoot rtoes
    lowerback upperback
    upperback thorax
    thorax lowerneck lclavicle rclavicle
    lowerneck upperneck
    upperneck head
    lclavicle lhumerus
    lhumerus lradius
    lradius lwrist
    lwrist lhand lthumb
    lhand lfingers
    rclavicle rhumerus
    rhumerus rradius
    rradius rwrist
    rwrist rhand rthumb
    rhand rfingers
  end

#!OML:ASF H:\ManfredObstacles\Project 1\Capture day 2\Session 1\male.ASF
:FULLY-SPECIFIED
:DEGREES
83
root 1.71995 15.0069 13.6514 -170.653 -13.037 180.35
lowerback 14.1041 2.7239 -4.6714
upperback 5.62328 2.13829 -2.79387
thorax -2.04737 0.719588 -0.613947
lowerneck -36.2051 -8.27243 -7.32446
upperneck 34.2374 -17.3625 14.501
head 23.7288 -5.79913 3.49821
rclavicle 2.66371e-014 -3.49861e-014
rhumerus -29.5543 0.588344 -79.4797
rradius 59.1005
rwrist 12.4665
rhand -17.3149 -6.85086
rfingers 7.12502
rthumb 8.93152 -36.6418
lclavicle 2.66371e-014 -3.49861e-014
lhumerus -27.7566 -20.6016 76.6661
lradius 76.5839
lwrist -20.2643
lhand -20.5514 5.36133
lfingers 7.12502
lthumb 5.80752 35.2617
rfemur -49.9299 -29.0796 0.673978
rtibia 133.842
rfoot -20.0131 -9.93346
rtoes -45.1868
lfemur -31.956 6.5545 -22.3518
ltibia 60.5486
lfoot -6.30902 21.9798
ltoes -12.7916
84
root 1.74261 15.0599 13.4219 -171.138 -14.0694 180.241
lowerback 14.5992 2.21932 -4.82521
upperback 5.80792 1.40315 -2.61967
thorax -2.10881 0.338859 -0.237329
lowerneck -36.2919 -8.13875 -7.32711
upperneck 34.4432 -17.2444 14.4772
head 23.9054 -5.76658 3.5403
rclavicle 4.01545e-014 -1.59028e-014
rhumerus -30.5815 -0.224439 -77.6872
rradius 57.3529
rwrist 12.3989
rhand -17.5894 -7.2436
rfingers 7.12502
rthumb 8.66663 -37.0457
lclavicle 4.01545e-014 -1.59028e-014
lhumerus -24.491 -21.9511 75.3484
lradius 76.5236
lwrist -20.5034
lhand -20.7059 5.47243
lfingers 7.12502
lthumb 5.6583 35.3769
rfemur -51.9635 -32.5519 -3.13264
rtibia 136.565
rfoot -22.3249 -8.41311
rtoes -46.3609
lfemur -30.0276 6.39218 -21.8266
ltibia 59.4593
lfoot -6.25082 21.031
ltoes -13.5424
85
root 1.76929 15.1202 13.1854 -171.609 -15.1707 180.207
lowerback 15.0296 1.68268 -4.95595
upperback 5.95402 0.644233 -2.3957
thorax -2.16486 -0.048851 0.19075
lowerneck -36.3911 -7.96797 -7.30134
upperneck 34.7434 -17.0663 14.3573
head 24.1237 -5.72027 3.55111
rclavicle 3.73715e-014 9.22361e-014
rhumerus -31.6105 -1.20558 -75.614
rradius 55.6184
rwrist 12.3206
rhand -17.8286 -7.66503
rfingers 7.12502
rthumb 8.43575 -37.4766
lclavicle 3.73715e-014 9.22361e-014
lhumerus -21.1438 -23.2904 73.6681
lradius 76.4819
lwrist -20.8604
lhand -20.8052 5.5957
lfingers 7.12502
lthumb 5.56243 35.5027
rfemur -53.9215 -36.3605 -6.89918
rtibia 138.825
rfoot -24.5844 -7.03366
rtoes -46.0034
lfemur -28.0475 6.13565 -21.1953
ltibia 58.2131
lfoot -6.20737 20.1394
ltoes -14.1197
86
root 1.79848 15.1901 12.941 -172.037 -16.3052 180.226
lowerback 15.3882 1.11608 -5.06304
upperback 6.03741 -0.134185 -2.14477
thorax -2.2359 -0.439481 0.643848
lowerneck -36.4947 -7.73882 -7.21152
upperneck 35.1339 -16.8074 14.1286
head 24.366 -5.65024 3.52244
rclavicle -1.63003e-014 3.10104e-014
rhumerus -32.6923 -2.36538 -73.2565
rradius 54.0012
rwrist 12.2565
rhand -17.9474 -8.04238
rfingers 7.12502
rthumb 8.32108 -37.8585
lclavicle -1.63003e-014 3.10104e-014
lhumerus -17.7873 -24.5802 71.6225
lradius 76.4631
lwrist -21.3049
lhand -20.8645 5.7321
lfingers 7.12502
lthumb 5.50517 35.6406
rfemur -55.9885 -40.1885 -10.3241
rtibia 140.586
rfoot -26.6826 -5.93134
rtoes -43.419
lfemur -25.997 5.77483 -20.4969
ltibia 56.7033
lfoot -6.07153 19.2855
ltoes -14.5586
87
root 1.8333 15.2463 12.6932 -172.4 -17.4402 180.312
lowerback 15.6435 0.514756 -5.12037
upperback 6.05584 -0.931212 -1.87141
thorax -2.30784 -0.831896 1.10053
lowerneck -36.6499 -7.4469 -7.04394
upperneck 35.5956 -16.4362 13.7724
head 24.6195 -5.54126 3.44896
rclavicle 2.66371e-014 6.2816e-014
rhumerus -33.829 -3.64925 -70.6272
rradius 52.6152
rwrist 12.0933
rhand -17.9621 -8.34839
rfingers 7.12502
rthumb 8.30694 -38.1651
lclavicle 2.66371e-014 6.2816e-014
lhumerus -14.472 -25.7468 69.2263
lradius 76.4798
lwrist -21.7907
lhand -20.9007 5.87755
lfingers 7.12502
lthumb 5.47023 35.7869
rfemur -58.5298 -43.8467 -13.1677
rtibia 142.035
rfoot -28.5719 -5.04917
rtoes -39.2994
lfemur -24 5.29532 -19.7215
ltibia 55.0027
lfoot -5.77164 18.4536
ltoes -14.9096
88
root 1.86338 15.3408 12.4316 -172.686 -18.5308 180.457
lowerback 15.7857 -0.113979 -5.11651
upperback 6.01329 -1.7363 -1.58486
thorax -2.37352 -1.22149 1.53984
lowerneck -36.8127 -7.10129 -6.83588
upperneck 36.0863 -15.9605 13.3412
head 24.8594 -5.39947 3.36059
rclavicle -3.53837e-014 4.53229e-014
rhumerus -35.0043 -4.95952 -67.7568
rradius 51.5348
rwrist 11.7783
rhand -17.937 -8.59793
rfingers 7.12502
rthumb 8.33111 -38.4136
lclavicle -3.53837e-014 4.53229e-014
lhumerus -11.2424 -26.7608 66.5231
lradius 76.5523
lwrist -22.1316
lhand -20.9062 6.0727
lfingers 7.12502
lthumb 5.46489 35.9822
rfemur -61.6246 -46.4992 -14.6054
rtibia 142.739
rfoot -29.9627 -4.77711
rtoes -33.5316
lfemur -21.8313 4.66317 -18.9131
ltibia 52.8622
lfoot -5.2363 17.6343
ltoes -15.1804
89
root 1.89096 15.451 12.1614 -172.886 -19.5323 180.659
lowerback 15.8158 -0.766105 -5.02507
upperback 5.90298 -2.54192 -1.30154
thorax -2.44512 -1.60404 1.92562
lowerneck -36.9834 -6.67764 -6.54574
upperneck 36.6184 -15.3681 12.8218
head 25.0888 -5.21708 3.24512
rclavicle -2.42517e-014 3.18055e-015
rhumerus -36.2145 -6.20253 -64.7092
rradius 50.8381
rwrist 11.1946
rhand -17.824 -8.83849
rfingers 7.12502
rthumb 8.44017 -38.6498
lclavicle -2.42517e-014 3.18055e-015
lhumerus -8.17536 -27.585 63.5703
lradius 76.6822
lwrist -22.2511
lhand -20.8734 6.28465
lfingers 7.12502
lthumb 5.49663 36.1934
rfemur -65.4807 -48.0023 -14.6408
rtibia 142.899
rfoot -30.8541 -4.90887
rtoes -27.8375
lfemur -19.5927 3.85069 -18.0826
ltibia 50.3589
lfoot -4.39915 16.7872
ltoes -15.3702
90
root 1.9152 15.5781 11.8828 -173.006 -20.4083 180.876
lowerback 15.7427 -1.42534 -4.88973
upperback 5.74505 -3.3387 -1.0271
thorax -2.50835 -1.97819 2.27197
lowerneck -37.206 -6.188 -6.1674
upperneck 37.1699 -14.6591 12.2055
head 25.3058 -4.99006 3.09347
rclavicle 7.15625e-015 -2.54444e-014
rhumerus -37.3885 -7.2632 -61.552
rradius 50.4931
rwrist 10.4236
rhand -17.743 -9.12774
rfingers 7.12502
rthumb 8.51833 -38.9359
lclavicle 7.15625e-015 -2.54444e-014
lhumerus -5.3169 -28.1903 60.4429
lradius 76.8588
lwrist -22.1332
lhand -20.8458 6.48014
lfingers 7.12502
lthumb 5.52319 36.3882
rfemur -69.9074 -48.1848 -13.5357
rtibia 142.53
rfoot -31.2716 -5.39604
rtoes -22.3412
lfemur -17.2126 2.81666 -17.2906
ltibia 47.38
lfoot -3.17103 15.827
ltoes -15.4987
91
root 1.93562 15.7215 11.5961 -173.041 -21.1232 181.076
lowerback 15.5762 -2.07732 -4.73867
upperback 5.53527 -4.11476 -0.768498
thorax -2.57461 -2.33845 2.5837
lowerneck -37.3957 -5.61874 -5.70638
upperneck 37.7385 -13.8416 11.5219
head 25.4973 -4.72625 2.91884
rclavicle -1.39149e-014 3.81667e-014
rhumerus -38.4798 -8.04555 -58.3594
rradius 50.4659
rwrist 9.50509
rhand -17.6489 -9.48809
rfingers 7.12502
rthumb 8.6092 -39.2926
lclavicle -1.39149e-014 3.81667e-014
lhumerus -2.74146 -28.5631 57.248
lradius 77.0725
lwrist -21.7884
lhand -20.7742 6.70307
lfingers 7.12502
lthumb 5.5924 36.6093
rfemur -74.4925 -47.0253 -11.8016
rtibia 141.674
rfoot -31.2916 -6.16734
rtoes -17.675
lfemur -14.7043 1.5508 -16.5846
ltibia 43.9914
lfoot -1.54785 14.734
ltoes -15.5599
92
root 1.9527 15.8795 11.3023 -172.992 -21.6621 181.214
lowerback 15.354 -2.70275 -4.62406
upperback 5.27928 -4.85794 -0.528012
thorax -2.65621 -2.68011 2.88619
lowerneck -37.5961 -4.97707 -5.15112
upperneck 38.3189 -12.9211 10.7589
head 25.6803 -4.42381 2.7086
rclavicle 6.55989e-014 4.45278e-014
rhumerus -39.4398 -8.50112 -55.1923
rradius 50.6651
rwrist 8.59127
rhand -17.5885 -9.87759
rfingers 7.12502
rthumb 8.66743 -39.6797
lclavicle 6.55989e-014 4.45278e-014
lhumerus -0.511658 -28.7017 54.0933
lradius 77.3255
lwrist -21.2853
lhand -20.649 6.90357
lfingers 7.12502
lthumb 5.71324 36.8065
rfemur -78.8032 -44.6992 -10.0412
rtibia 140.388
rfoot -30.9893 -7.18552
rtoes -13.7635
lfemur -12.0468 0.0575525 -16.0293
ltibia 40.1904
lfoot 0.549968 13.4581
ltoes -15.5714
93
root 1.96719 16.0505 11.0019 -172.863 -22.0155 181.273
lowerback 15.0918 -3.28452 -4.55978
upperback 4.98131 -5.55023 -0.31238
thorax -2.75768 -2.99465 3.17768
lowerneck -37.7852 -4.29922 -4.55053
upperneck 38.8851 -11.9414 9.95553
head 25.8562 -4.10203 2.47795
rclavicle -2.14687e-014 -1.59028e-015
rhumerus -40.2403 -8.63121 -52.1107
rradius 51.0196
rwrist 7.74677
rhand -17.5532 -10.2958
rfingers 7.12502
rthumb 8.70149 -40.0965
lclavicle -2.14687e-014 -1.59028e-015
lhumerus 1.3546 -28.6435 51.0542
lradius 77.6053
lwrist -20.7237
lhand -20.4601 7.09112
lfingers 7.12502
lthumb 5.8956 36.9891
rfemur -82.5588 -41.4919 -8.65014
rtibia 138.732
rfoot -30.4269 -8.41106
rtoes -10.8734
lfemur -9.23572 -1.60513 -15.6522
ltibia 35.9796
lfoot 3.1773 11.952
ltoes -15.5903
94
root 1.97913 16.2333 10.6955 -172.644 -22.1965 181.223
lowerback 14.7938 -3.81757 -4.58095
upperback 4.6421 -6.1903 -0.116982
thorax -2.87598 -3.28155 3.48234
lowerneck -37.9206 -3.596 -3.93983
upperneck 39.441 -10.9221 9.13781
head 26.0339 -3.77412 2.24177
rclavicle 2.66371e-014 -3.02153e-014
rhumerus -40.847 -8.43491 -49.1385
rradius 51.4243
rwrist 7.0689
rhand -17.5327 -10.6498
rfingers 7.12502
rthumb 8.72127 -40.4496
lclavicle 2.66371e-014 -3.02153e-014
lhumerus 2.82131 -28.4271 48.2135
lradius 77.9034
lwrist -20.2249
lhand -20.2792 7.24882
lfingers 7.12502
lthumb 6.07029 37.1419
rfemur -85.7007 -37.7482 -7.81418
rtibia 136.754
rfoot -29.6392 -9.78402
rtoes -7.8689
lfemur -6.27697 -3.36098 -15.4886
ltibia 31.3408
lfoot 6.40369 10.1987
ltoes -15.6863
95
root 1.98855 16.4273 10.3826 -172.326 -22.2266 181.069
lowerback 14.4325 -4.30438 -4.67983
upperback 4.27054 -6.77906 0.0539963
thorax -2.98714 -3.542 3.788
lowerneck -37.9969 -2.89247 -3.32657
upperneck 39.9483 -9.88605 8.31724
head 26.1796 -3.44488 1.99901
rclavicle 1.78906e-014 -3.73715e-014
rhumerus -41.2603 -7.97077 -46.2971
rradius 51.824
rwrist 6.55647
rhand -17.4877 -10.846
rfingers 7.12502
rthumb 8.7647 -40.644
lclavicle 1.78906e-014 -3.73715e-014
lhumerus 3.88995 -28.1095 45.5863
lradius 78.234
lwrist -19.8178
lhand -20.1098 7.36156
lfingers 7.12502
lthumb 6.2338 37.2498
rfemur -88.2655 -33.8027 -7.51318
rtibia 134.498
rfoot -28.6468 -11.2428
rtoes -5.3268
lfemur -3.1617 -5.10449 -15.5228
ltibia 26.2061
lfoot 10.3289 8.25565
ltoes -15.9171
